<svg id="Capa_1" data-name="Capa 1" xmlns="http://www.w3.org/2000/svg" viewBox="0 0 700 500"><defs><style>.cls-1{fill:#000e08;}.cls-2,.cls-8{fill:#f75c03;}.cls-3{font-size:82.94px;fill:#fff;letter-spacing:-0.02em;}.cls-3,.cls-8{font-family:Nutmeg-Bold, Nutmeg;font-weight:700;}.cls-4{letter-spacing:-0.02em;}.cls-5{letter-spacing:-0.02em;}.cls-6{letter-spacing:-0.02em;}.cls-7{letter-spacing:0em;}.cls-8{font-size:82.94px;letter-spacing:-0.01em;}.cls-9{letter-spacing:-0.02em;}.cls-10{letter-spacing:-0.01em;}.cls-11{letter-spacing:-0.01em;}.cls-12{letter-spacing:-0.03em;}.cls-13{letter-spacing:-0.03em;}.cls-14{letter-spacing:0em;}</style></defs><title>Union Digital 2.0 variado</title><path class="cls-1" d="M1484,540.5l-775-12-6,594-799-12,6-1127H1484Z"/><path class="cls-2" d="M303.87,193.74a80.54,80.54,0,0,0-29.31-16.28c-11.06-3.51-23.79-5.29-37.82-5.29h-63.6c-7.91.13-13,5.17-13,12.85V259.6c0,5.84-1.44,10.13-4.39,13.12s-7,4.41-12.62,4.41c-8.23,0-11.38-3.28-12.41-4.35-2.88-3-4.28-7.31-4.28-13.18V185c0-7.81-5.28-12.85-13.46-12.85H72.35a13.89,13.89,0,0,0-9.49,3.34A12.35,12.35,0,0,0,59,185v72.43c0,25.44,7.36,45.15,21.87,58.58a70.14,70.14,0,0,0,26.82,15.17c10.23,3.23,22.16,4.87,35.46,4.88H148a97.71,97.71,0,0,0,27.42-5.36A89.31,89.31,0,0,0,203.46,315a80.11,80.11,0,0,0,17.72-21.81l.47-1.13h.14a1.09,1.09,0,0,0,.08-.15v.15h14.67c11.23,0,20.43-3.55,27.35-10.56s10.41-16.21,10.41-27.41-3.5-20.42-10.41-27.41-16.13-10.56-27.35-10.56H214.41v41.3c0,21.91-5.76,37.94-17.61,49s-29.85,16.6-53.62,16.61c-23.6,0-41.58-5.58-53.47-16.58S72,279.42,72,257.45V185.19H113.4V259.6c0,9.27,2.66,16.74,7.92,22.2s12.65,8.35,21.79,8.35,16.47-2.79,21.89-8.28,8.14-13,8.14-22.27V185.19h63.6c25.1,0,44.78,6.16,58.5,18.3s20.32,28.68,20.32,50.63-6.65,38.52-20.32,50.63-33.4,18.31-58.5,18.31H210.39a52.21,52.21,0,0,1-5.41,6.22,54,54,0,0,1-8.44,6.8h40.2c14,0,26.76-1.78,37.82-5.29a80.7,80.7,0,0,0,29.31-16.29c16.4-14.52,24.71-34.83,24.71-60.38S320.27,208.27,303.87,193.74Zm-75.25,35.43h7.91c7.72,0,13.64,2.19,18.09,6.69s6.65,10.5,6.65,18.26-2.18,13.74-6.65,18.26-10.37,6.69-18.09,6.69h-7.91Z"/><text class="cls-3" transform="translate(353.89 231.45)">U<tspan class="cls-4" x="62.65" y="0">n</tspan><tspan class="cls-5" x="117.68" y="0">i</tspan><tspan class="cls-6" x="138.87" y="0">รณ</tspan><tspan class="cls-7" x="189.02" y="0">n</tspan></text><text class="cls-8" transform="translate(353.89 316.66)">D<tspan class="cls-9" x="63.71" y="0">i</tspan><tspan class="cls-10" x="84.77" y="0">g</tspan><tspan class="cls-11" x="138.09" y="0">i</tspan><tspan class="cls-12" x="160" y="0">t</tspan><tspan class="cls-13" x="197.79" y="0">a</tspan><tspan class="cls-14" x="254.62" y="0">l</tspan></text></svg>